<?xml version="1.0" standalone="no"?><!DOCTYPE svg PUBLIC "-//W3C//DTD SVG 1.1//EN" "http://www.w3.org/Graphics/SVG/1.1/DTD/svg11.dtd"><svg class="icon" width="16px" height="16.00px" viewBox="0 0 1024 1024" version="1.1" xmlns="http://www.w3.org/2000/svg"><path fill="#2c2c2c" d="M744.4367 538.0813c4.3387-2.7116 7.2182-7.5325 7.2182-13.0253s-2.8805-10.3127-7.2182-13.0253l-671.4542-419.69560001c-4.5783-2.8621-10.5308-3.2123-15.5873-0.40959998s-7.9145 8.0353-7.9145 13.43489999L49.4807 944.753664c0 5.3985 2.858 10.6322 7.9145 13.4349 5.05649999 2.8027 11.00899999 2.4525 15.58730001-0.4096L744.4367 538.0813z"  /><path fill="#2c2c2c" d="M944.45770001 957.1492c0 3.9311-1.4991 7.8623-4.49950001 10.8605-2.9993 2.9993-6.9304 4.4995-10.8605 4.4995l-150.528 0c-3.9311 0-7.8623-1.4991-10.8605-4.4995-2.9993-2.9993-4.4995-6.9304-4.4995-10.8605l0-863.232c0-3.9311 1.4991-7.8623 4.4995-10.8605 2.9993-2.9993 6.9304-4.4995 10.8605-4.4995l150.528 0c3.9311 0 7.8623 1.5002 10.8605 4.4995 2.9993 2.9993 4.4995 6.9304 4.4995 10.8605L944.4577 957.149184z"  /></svg>