<?xml version="1.0" standalone="no"?><!DOCTYPE svg PUBLIC "-//W3C//DTD SVG 1.1//EN" "http://www.w3.org/Graphics/SVG/1.1/DTD/svg11.dtd"><svg t="1644473427323" class="icon" viewBox="0 0 1025 1024" version="1.1" xmlns="http://www.w3.org/2000/svg" p-id="3430" xmlns:xlink="http://www.w3.org/1999/xlink" width="16.015625" height="16"><defs><style type="text/css"></style></defs><path d="M465.935 787.885h-27.547c-247.133-291.208-86.575-485.61 157.41-624.917L524.177 38.614a24.399 24.399 0 0 1 0-27.547A24.399 24.399 0 0 1 550.937 0.836l373.848 59.816a25.973 25.973 0 0 1 18.102 30.695L808.302 442.37a23.611 23.611 0 0 1-11.02 14.953h-9.444a25.186 25.186 0 0 1-24.398-12.592L691.818 325.1c-240.05 136.947-324.264 267.597-225.883 462.785zM865.756 1024H157.412A157.41 157.41 0 0 1 0.002 866.59V236.95a157.41 157.41 0 0 1 157.41-157.41h157.41v73.983h-157.41a78.705 78.705 0 0 0-78.705 78.705v639.084a78.705 78.705 0 0 0 78.705 78.705h708.344a78.705 78.705 0 0 0 78.705-78.705V473.065h78.705V866.59A157.41 157.41 0 0 1 865.756 1024z" p-id="3431"></path></svg>