<?xml version="1.0" standalone="no"?><!DOCTYPE svg PUBLIC "-//W3C//DTD SVG 1.1//EN" "http://www.w3.org/Graphics/SVG/1.1/DTD/svg11.dtd"><svg class="icon" width="16px" height="16.00px" viewBox="0 0 1024 1024" version="1.1" xmlns="http://www.w3.org/2000/svg"><path fill="#2c2c2c" d="M229.7057 962.2692c0 3.9311-1.5002 7.8623-4.4995 10.8605-2.9993 2.9993-6.9304 4.4995-10.8605 4.4995l-151.552 0c-3.9311 0-7.8623-1.4991-10.8605-4.4995-2.9993-2.9993-4.4995-6.9304-4.4995-10.8605l-1e-8-865.28c0-3.9311 1.5002-7.8623 4.49950001-10.8605s6.9304-4.4995 10.8605-4.4995l151.55200001 0c3.9311 0 7.8623 1.5002 10.86049999 4.4995s4.4995 6.9304 4.4995 10.86049999L229.7057 962.26918401z"  /><path fill="#2c2c2c" d="M943.4337 109.3437c0-5.39960001-2.858-10.63320001-7.9145-13.4349-5.0565-2.8017-11.00899999-2.4525-15.5873 0.4096L247.4138 516.6797c-4.3387 2.7116-7.2192 7.53249999-7.2192 13.0253s2.8805 10.3127 7.2192 13.0253L919.9319 963.0925c4.5783 2.8611 10.5308 3.2123 15.5873 0.4096 5.0565-2.8017 7.9145-8.0353 7.9145-13.4349L943.4337 109.343744z"  /></svg>