<?xml version="1.0" standalone="no"?><!DOCTYPE svg PUBLIC "-//W3C//DTD SVG 1.1//EN" "http://www.w3.org/Graphics/SVG/1.1/DTD/svg11.dtd"><svg t="1644806989835" class="icon" viewBox="0 0 1024 1024" version="1.1" xmlns="http://www.w3.org/2000/svg" p-id="2742" xmlns:xlink="http://www.w3.org/1999/xlink" width="16" height="16"><defs><style type="text/css"></style></defs><path d="M927.202397 98.818633H96.795557c-52.949956 0-95.836719 42.676985-95.836719 95.330182v635.664508c0 52.650127 42.885739 95.369068 95.836719 95.369067h830.405816c52.909024 0 95.836719-42.718941 95.836719-95.369067l0.002047-635.664508c-0.040932-52.651151-42.963511-95.330182-95.837742-95.330182z m15.959483 633.706923l-200.475917-265.998214s-11.636015-21.516036-52.557006-21.516036c-46.424332 0-60.379159 20.850887-60.379159 20.850887L454.154547 735.577055s-9.550517 18.073634-32.980135 18.073634c-24.529673 0-36.242436-18.073634-36.242436-18.073634L292.594965 630.54593s-23.661909-31.176047-54.403051-31.176047c-30.623461 0-56.05569 34.500768-56.05569 34.500769l-101.338013 125.648698V211.206306c0-17.525142 14.308891-31.80231 31.958876-31.80231h798.48685c17.652032 0 31.958876 14.276145 31.958875 31.80231v521.320273h-0.040932v-0.001023z m-479.177453-347.637582c0 62.196551-50.630121 112.579031-113.091708 112.579031s-113.133663-50.421366-113.133664-112.579031c0-62.120826 50.671053-112.544239 113.133664-112.544239 62.461587 0.042979 113.091708 50.42546 113.091708 112.544239z" p-id="2743"></path></svg>